<svg width="96" height="96" viewBox="0 0 482 414" fill="none" xmlns="http://www.w3.org/2000/svg">
<path d="M83.3 355.6C56.9333 355.6 37.5667 348.95 25.2 335.65C12.8333 322.35 6.65 300.3 6.65 269.5C6.65 245 10.7333 218.633 18.9 190.4C27.3 162.167 40.6 138.017 58.8 117.95C77.2333 97.65 100.567 87.5 128.8 87.5C146.3 87.5 160.417 91.35 171.15 99.05C181.883 106.75 187.25 118.533 187.25 134.4C187.25 144.433 185.267 152.367 181.3 158.2C177.333 163.8 171.15 166.6 162.75 166.6C154.35 166.6 147.7 163.567 142.8 157.5C147 155.4 150.733 151.2 154 144.9C157.267 138.6 158.9 132.067 158.9 125.3C158.9 119 157.15 113.867 153.65 109.9C150.383 105.933 145.017 103.95 137.55 103.95C125.183 103.95 113.4 112.467 102.2 129.5C91 146.3 81.9 167.533 74.9 193.2C68.1333 218.867 64.75 243.6 64.75 267.4C64.75 285.133 67.7833 298.667 73.85 308C79.9167 317.333 90.8833 322 106.75 322C120.517 322 133.233 318.967 144.9 312.9C156.567 306.833 166.6 298.2 175 287L183.05 290.5C177.217 305.2 168.583 317.45 157.15 327.25C145.717 337.05 133.467 344.283 120.4 348.95C107.333 353.383 94.9667 355.6 83.3 355.6Z" fill="#C0FAA7"/>
<path d="M377.238 362.6C350.871 362.6 331.505 355.95 319.138 342.65C306.771 329.35 300.588 307.3 300.588 276.5C300.588 252 304.671 225.633 312.838 197.4C321.238 169.167 334.538 145.017 352.738 124.95C371.171 104.65 394.505 94.5 422.738 94.5C440.238 94.5 454.355 98.35 465.088 106.05C475.821 113.75 481.188 125.533 481.188 141.4C481.188 151.433 479.205 159.367 475.238 165.2C471.271 170.8 465.088 173.6 456.688 173.6C448.288 173.6 441.638 170.567 436.738 164.5C440.938 162.4 444.671 158.2 447.938 151.9C451.205 145.6 452.838 139.067 452.838 132.3C452.838 126 451.088 120.867 447.588 116.9C444.321 112.933 438.955 110.95 431.488 110.95C419.121 110.95 407.338 119.467 396.138 136.5C384.938 153.3 375.838 174.533 368.838 200.2C362.071 225.867 358.688 250.6 358.688 274.4C358.688 292.133 361.721 305.667 367.788 315C373.855 324.333 384.821 329 400.688 329C414.455 329 427.171 325.967 438.838 319.9C450.505 313.833 460.538 305.2 468.938 294L476.988 297.5C471.155 312.2 462.521 324.45 451.088 334.25C439.655 344.05 427.405 351.283 414.338 355.95C401.271 360.383 388.905 362.6 377.238 362.6Z" fill="#C0FAA7"/>
<path d="M222.846 404.6C196.48 404.6 177.113 397.95 164.746 384.65C152.38 371.35 146.196 349.3 146.196 318.5C146.196 294 150.28 267.633 158.446 239.4C166.846 211.167 180.146 187.017 198.346 166.95C216.78 146.65 240.113 136.5 268.346 136.5C285.846 136.5 299.963 140.35 310.696 148.05C321.43 155.75 326.796 167.533 326.796 183.4C326.796 193.433 324.813 201.367 320.846 207.2C316.88 212.8 310.696 215.6 302.296 215.6C293.896 215.6 287.246 212.567 282.346 206.5C286.546 204.4 290.28 200.2 293.546 193.9C296.813 187.6 298.446 181.067 298.446 174.3C298.446 168 296.696 162.867 293.196 158.9C289.93 154.933 284.563 152.95 277.096 152.95C264.73 152.95 252.946 161.467 241.746 178.5C230.546 195.3 221.446 216.533 214.446 242.2C207.68 267.867 204.296 292.6 204.296 316.4C204.296 334.133 207.33 347.667 213.396 357C219.463 366.333 230.43 371 246.296 371C260.063 371 272.78 367.967 284.446 361.9C296.113 355.833 306.146 347.2 314.546 336L322.596 339.5C316.763 354.2 308.13 366.45 296.696 376.25C285.263 386.05 273.013 393.283 259.946 397.95C246.88 402.383 234.513 404.6 222.846 404.6Z" fill="#C0FAA7"/>
</svg>
